<svg width="20" height="20" viewBox="0 0 20 20" fill="none" xmlns="http://www.w3.org/2000/svg">
<path fill-rule="evenodd" clip-rule="evenodd" d="M16.0564 3.16108C15.0423 2.15275 13.3723 2.33191 12.5231 3.46691L11.4714 4.87025C10.7798 5.79358 10.8414 7.08358 11.6623 7.89941L11.8606 8.09775C11.8831 8.181 11.8854 8.26843 11.8673 8.35275C11.8148 8.69275 11.5306 9.41275 10.3406 10.5961C9.15061 11.7794 8.42561 12.0627 8.08061 12.1161C7.99368 12.1336 7.9039 12.131 7.81811 12.1086L7.47811 11.7702C6.74811 11.0452 5.62811 10.9094 4.72478 11.4002L3.13311 12.2669C1.76894 13.0069 1.42478 14.8602 2.54144 15.9711L3.72561 17.1477C4.09894 17.5186 4.60061 17.8277 5.21228 17.8852C6.72061 18.0261 10.2348 17.8461 13.9289 14.1736C17.3764 10.7452 18.0381 7.75525 18.1223 6.28191C18.1639 5.53691 17.8123 4.90691 17.3639 4.46191L16.0564 3.16108ZM13.5231 4.21608C13.9456 3.65191 14.7323 3.60691 15.1756 4.04775L16.4839 5.34775C16.7589 5.62108 16.8906 5.92275 16.8739 6.21108C16.8073 7.38191 16.2739 10.0794 13.0473 13.2877C9.66228 16.6527 6.53644 16.7536 5.32811 16.6402C5.08144 16.6177 4.83644 16.4894 4.60728 16.2619L3.42394 15.0844C2.94228 14.6061 3.04811 13.7344 3.72978 13.3644L5.32144 12.4986C5.76144 12.2602 6.27644 12.3386 6.59644 12.6569L6.97561 13.0344L7.41728 12.5911C6.97561 13.0344 6.97644 13.0352 6.97728 13.0352L6.97811 13.0369L6.98061 13.0394L6.98644 13.0444L6.99894 13.0561C7.03411 13.0887 7.07203 13.1183 7.11228 13.1444C7.17894 13.1886 7.26728 13.2377 7.37811 13.2786C7.60311 13.3627 7.90144 13.4077 8.26978 13.3511C8.99228 13.2402 9.94978 12.7477 11.2223 11.4827C12.4939 10.2177 12.9906 9.26608 13.1023 8.54441C13.1598 8.17608 13.1139 7.87775 13.0289 7.65275C12.9822 7.52614 12.9152 7.40794 12.8306 7.30275L12.8039 7.27358L12.7923 7.26108L12.7873 7.25608L12.7848 7.25358L12.7831 7.25191L12.5431 7.01358C12.1864 6.65775 12.1364 6.06858 12.4723 5.61941L13.5231 4.21608Z" fill="#53677B"/>
</svg>
