<svg width="22" height="22" viewBox="0 0 22 22" fill="none" xmlns="http://www.w3.org/2000/svg">
<rect width="22" height="22" rx="4" fill="#4A4A4A" fill-opacity="0.06"/>
<path d="M14.6666 6.64502C14.864 6.64502 15.0304 6.70902 15.1608 6.83936C15.291 6.96967 15.3551 7.13613 15.3551 7.3335C15.355 7.53063 15.2908 7.69644 15.1608 7.82666L11.9869 10.9995L15.1608 14.1733C15.2908 14.3036 15.3551 14.4693 15.3551 14.6665C15.3551 14.8639 15.2911 15.0303 15.1608 15.1606C15.0304 15.291 14.864 15.355 14.6666 15.355C14.4694 15.355 14.3037 15.2907 14.1735 15.1606L10.9996 11.9868L7.82678 15.1606C7.69656 15.2907 7.53075 15.3549 7.33362 15.355C7.13625 15.355 6.96979 15.2909 6.83948 15.1606C6.70914 15.0303 6.64514 14.8639 6.64514 14.6665C6.64515 14.4693 6.70937 14.3036 6.83948 14.1733L10.0123 10.9995L6.83948 7.82666C6.70935 7.69642 6.6452 7.53069 6.64514 7.3335C6.64514 7.13607 6.70914 6.96969 6.83948 6.83936C6.96981 6.70902 7.1362 6.64502 7.33362 6.64502C7.53081 6.64508 7.69654 6.70922 7.82678 6.83936L10.9996 10.0122L14.1735 6.83936C14.3037 6.70925 14.4694 6.64503 14.6666 6.64502Z" fill="#242424" stroke="#242424" stroke-width="0.1"/>
</svg>
