<svg width="20" height="20" viewBox="0 0 20 20" fill="none" xmlns="http://www.w3.org/2000/svg">
<path d="M18.3333 5.23699V13.7626C18.3333 14.0857 18.205 14.3954 17.9766 14.6239C17.7482 14.8523 17.4384 14.9806 17.1154 14.9806H3.71795C3.39493 14.9806 3.08514 14.8523 2.85673 14.6239C2.62832 14.3954 2.5 14.0857 2.5 13.7626V5.23699M18.3333 5.23699C18.3333 4.91397 18.205 4.60418 17.9766 4.37577C17.7482 4.14736 17.4384 4.01904 17.1154 4.01904H3.71795C3.39493 4.01904 3.08514 4.14736 2.85673 4.37577C2.62832 4.60418 2.5 4.91397 2.5 5.23699M18.3333 5.23699L11.1097 10.2379C10.906 10.3788 10.6643 10.4543 10.4167 10.4543C10.169 10.4543 9.92729 10.3788 9.72365 10.2379L2.5 5.23699" stroke="#53677B" stroke-width="1.3" stroke-linecap="round" stroke-linejoin="round"/>
</svg>
