<svg width="40" height="40" viewBox="0 0 40 40" fill="none" xmlns="http://www.w3.org/2000/svg">
<rect width="40" height="40" rx="20" fill="#8CCA95"/>
<path fill-rule="evenodd" clip-rule="evenodd" d="M10.6667 15.9998C10.6667 13.5245 11.65 11.1505 13.4003 9.40017C15.1507 7.64983 17.5246 6.6665 20 6.6665C22.4753 6.6665 24.8493 7.64983 26.5997 9.40017C28.35 11.1505 29.3333 13.5245 29.3333 15.9998V17.3798C31.5947 17.7038 33.3333 19.6492 33.3333 21.9998V22.3332C33.3331 22.9113 33.2173 23.4836 32.9925 24.0163C32.7678 24.549 32.4388 25.0313 32.0248 25.4349C31.6108 25.8384 31.1202 26.1551 30.5819 26.3661C30.0437 26.5772 29.4686 26.6784 28.8907 26.6638C27.904 29.4905 25.3947 31.3958 22.6867 31.8785C22.06 32.1078 21.3187 31.9998 20.6667 31.9998C20.1362 31.9998 19.6275 31.7891 19.2524 31.4141C18.8774 31.039 18.6667 30.5303 18.6667 29.9998C18.6667 29.4694 18.8774 28.9607 19.2524 28.5856C19.6275 28.2106 20.1362 27.9998 20.6667 27.9998H22C22.3131 27.9998 22.6218 28.0732 22.9013 28.2142C23.1808 28.3553 23.4233 28.56 23.6093 28.8118C25.3373 27.9892 26.6667 26.2518 26.6667 23.9998V15.9998C26.6667 14.2317 25.9643 12.536 24.714 11.2858C23.4638 10.0355 21.7681 9.33317 20 9.33317C18.2319 9.33317 16.5362 10.0355 15.2859 11.2858C14.0357 12.536 13.3333 14.2317 13.3333 15.9998V24.3332C13.3333 24.952 13.0875 25.5455 12.6499 25.9831C12.2123 26.4207 11.6188 26.6665 11 26.6665C9.85072 26.6665 8.74852 26.21 7.93586 25.3973C7.1232 24.5846 6.66666 23.4824 6.66666 22.3332V21.9998C6.66637 20.8775 7.0706 19.7926 7.80526 18.944C8.53992 18.0955 9.55579 17.5402 10.6667 17.3798V15.9998ZM10.6667 20.1132C10.2766 20.2511 9.93883 20.5066 9.70003 20.8445C9.46123 21.1824 9.33311 21.5861 9.33332 21.9998V22.3332C9.33332 23.1398 9.90666 23.8132 10.6667 23.9665V20.1132ZM29.3333 20.1132V23.9665C30.0933 23.8118 30.6667 23.1398 30.6667 22.3332V21.9998C30.6669 21.5861 30.5388 21.1824 30.3 20.8445C30.0611 20.5066 29.7234 20.2511 29.3333 20.1132Z" fill="white"/>
</svg>
