<svg width="20" height="20" viewBox="0 0 20 20" fill="none" xmlns="http://www.w3.org/2000/svg">
<path d="M10 1.24951C11.9891 1.24951 13.8968 2.03969 15.3033 3.44621C16.7098 4.85273 17.5 6.76039 17.5 8.74951C17.5 12.342 13.6287 16.2695 11.45 18.197C10.6125 18.9345 9.3875 18.9345 8.55 18.197C6.3725 16.2695 2.5 12.342 2.5 8.74951C2.5 6.76039 3.29018 4.85273 4.6967 3.44621C6.10322 2.03969 8.01088 1.24951 10 1.24951ZM10 2.49951C8.3424 2.49951 6.75269 3.15799 5.58058 4.33009C4.40848 5.5022 3.75 7.09191 3.75 8.74951C3.75 10.1345 4.5175 11.7433 5.7125 13.3533C6.87875 14.9258 8.32125 16.3245 9.38 17.2608C9.7425 17.5808 10.2575 17.5808 10.62 17.2608C11.6788 16.3245 13.12 14.927 14.2887 13.3533C15.4825 11.7433 16.25 10.1345 16.25 8.74951C16.25 7.09191 15.5915 5.5022 14.4194 4.33009C13.2473 3.15799 11.6576 2.49951 10 2.49951ZM10 5.93701C10.3693 5.93701 10.7351 6.00976 11.0763 6.1511C11.4175 6.29244 11.7276 6.49961 11.9887 6.76077C12.2499 7.02194 12.4571 7.33199 12.5984 7.67322C12.7398 8.01444 12.8125 8.38017 12.8125 8.74951C12.8125 9.11886 12.7398 9.48458 12.5984 9.82581C12.4571 10.167 12.2499 10.4771 11.9887 10.7383C11.7276 10.9994 11.4175 11.2066 11.0763 11.3479C10.7351 11.4893 10.3693 11.562 10 11.562C9.25408 11.562 8.53871 11.2657 8.01126 10.7383C7.48382 10.2108 7.1875 9.49543 7.1875 8.74951C7.1875 8.00359 7.48382 7.28822 8.01126 6.76077C8.53871 6.23333 9.25408 5.93701 10 5.93701ZM10 7.18701C9.5856 7.18701 9.18817 7.35163 8.89515 7.64466C8.60212 7.93768 8.4375 8.33511 8.4375 8.74951C8.4375 9.16391 8.60212 9.56134 8.89515 9.85437C9.18817 10.1474 9.5856 10.312 10 10.312C10.4144 10.312 10.8118 10.1474 11.1049 9.85437C11.3979 9.56134 11.5625 9.16391 11.5625 8.74951C11.5625 8.33511 11.3979 7.93768 11.1049 7.64466C10.8118 7.35163 10.4144 7.18701 10 7.18701Z" fill="#53677B"/>
</svg>
