<svg width="24" height="24" viewBox="0 0 24 24" fill="none" xmlns="http://www.w3.org/2000/svg">
<path d="M12 12H11.6C10.476 12 9.91445 12 9.51125 12.3033C9.33647 12.4347 9.18641 12.6035 9.06965 12.8001C8.80005 13.2537 8.80005 13.8864 8.80005 15.15C8.80005 16.4136 8.80005 17.0463 9.06965 17.4999C9.18641 17.6965 9.33647 17.8653 9.51125 17.9967C9.91445 18.3 10.4768 18.3 11.6 18.3H12M12 12H12.4C13.524 12 14.0856 12 14.4888 12.3033C14.6632 12.4347 14.8136 12.6039 14.9304 12.8001C15.2 13.2537 15.2 13.8864 15.2 15.15M12 12V15.15M12 18.3H12.4C13.524 18.3 14.0856 18.3 14.4888 17.9967C14.6632 17.8653 14.8136 17.6961 14.9304 17.4999C15.2 17.0463 15.2 16.4136 15.2 15.15M12 18.3V15.15M15.2 15.15H12" stroke="#F6CE1E" stroke-width="1.5"/>
<path d="M4 12C4 7.7574 4 5.6361 5.1712 4.3176C6.344 3 8.2288 3 12 3C12.2728 3 12.4096 3 12.5488 3.0135C13.203 3.07999 13.8236 3.36913 14.328 3.8424C14.4344 3.9432 14.5336 4.0548 14.7312 4.2771L18.8648 8.9274C19.0624 9.1497 19.1608 9.2604 19.2512 9.381C19.6688 9.9417 19.9312 10.6545 19.9872 11.3826C20 11.5392 20 11.6931 20 12C20 16.2426 20 18.3639 18.828 19.6815C17.6576 21 15.7712 21 12 21C8.2288 21 6.3432 21 5.1712 19.6815C4.3928 18.8058 4.1312 17.5737 4.044 15.6" stroke="#F6CE1E" stroke-width="1.5" stroke-linecap="round"/>
</svg>
