<svg width="24" height="24" viewBox="0 0 24 24" fill="none" xmlns="http://www.w3.org/2000/svg">
<path d="M6 13.77C6.64666 13.77 7.239 13.9447 7.777 14.294C8.31566 14.644 8.71133 15.1173 8.964 15.714L9.406 16.769H10.55C11.0193 16.769 11.4167 16.938 11.742 17.276C12.0673 17.614 12.2303 18.022 12.231 18.5C12.231 18.982 12.063 19.391 11.727 19.727C11.391 20.063 10.982 20.231 10.5 20.231H6C5.10533 20.231 4.34333 19.916 3.714 19.286C3.08466 18.656 2.76966 17.894 2.769 17C2.769 16.0887 3.084 15.3223 3.714 14.701C4.344 14.0797 5.106 13.769 6 13.769M13.314 11.686C14.288 12.6607 15.3813 13.4087 16.594 13.93C17.8067 14.4513 19.0953 14.7513 20.46 14.83C20.6047 14.8393 20.7317 14.8773 20.841 14.944C20.951 15.0107 21.043 15.098 21.117 15.206C21.191 15.314 21.2323 15.433 21.241 15.563C21.2483 15.6937 21.2207 15.8233 21.158 15.952C20.4847 17.4813 19.413 18.6967 17.943 19.598C16.473 20.4993 14.908 20.9667 13.248 21C13.5633 20.656 13.806 20.2697 13.976 19.841C14.146 19.4123 14.231 18.9653 14.231 18.5C14.231 17.4947 13.8927 16.634 13.216 15.918C12.5393 15.202 11.7153 14.8313 10.744 14.806C10.3133 13.8813 9.67066 13.144 8.816 12.594C7.96133 12.044 7.02266 11.7693 6 11.77C5.65866 11.77 5.32066 11.8047 4.986 11.874C4.65066 11.9433 4.322 12.0473 4 12.186V11.878C4.008 10.1307 4.45633 8.54668 5.345 7.12601C6.23433 5.70601 7.46033 4.62201 9.023 3.87401C9.15166 3.81135 9.28533 3.78701 9.424 3.80101C9.56266 3.81501 9.686 3.85268 9.794 3.91401C9.902 3.97535 9.99333 4.06435 10.068 4.18102C10.1427 4.29768 10.1847 4.42801 10.194 4.57201C10.2773 5.94135 10.5703 7.22201 11.073 8.41401C11.5757 9.60535 12.3223 10.6967 13.313 11.688" fill="white"/>
</svg>
