<svg width="60" height="60" viewBox="0 0 60 60" fill="none" xmlns="http://www.w3.org/2000/svg">
<rect width="60" height="60" rx="30" fill="#25D366"/>
<path d="M15.2407 29.8158C15.2399 32.4271 15.9221 34.9763 17.2191 37.2233L15.1163 44.9008L22.9734 42.8407C25.1382 44.021 27.5757 44.6434 30.0559 44.6443H30.0623C38.2307 44.6443 44.8802 37.9969 44.8837 29.8277C44.8851 25.8686 43.3446 22.1457 40.5465 19.3451C37.748 16.5449 34.0271 15.0016 30.0623 15C21.8926 15 15.2439 21.6465 15.2407 29.8158ZM19.9199 36.8363L19.6265 36.3706C18.3932 34.4096 17.7423 32.1436 17.7432 29.8167C17.7458 23.0266 23.2719 17.5023 30.067 17.5023C33.3577 17.5037 36.4502 18.7865 38.7763 21.114C41.1022 23.4416 42.3821 26.5358 42.3813 29.8267C42.3782 36.6169 36.8521 42.1419 30.0623 42.1419H30.0574C27.8466 42.1407 25.6784 41.547 23.7874 40.425L23.3374 40.1581L18.6749 41.3806L19.9199 36.8363Z" fill="url(#paint0_linear_671_1339)"/>
<path d="M26.3579 23.6218C26.0804 23.0052 25.7885 22.9928 25.5246 22.9819C25.3086 22.9726 25.0616 22.9733 24.8148 22.9733C24.5679 22.9733 24.1666 23.0662 23.8274 23.4366C23.4879 23.8073 22.5311 24.7031 22.5311 26.5251C22.5311 28.3471 23.8582 30.108 24.0432 30.3553C24.2285 30.6022 26.6052 34.4608 30.3694 35.9452C33.4978 37.1788 34.1344 36.9335 34.8133 36.8716C35.4924 36.81 37.0045 35.976 37.313 35.1112C37.6217 34.2466 37.6217 33.5054 37.5292 33.3505C37.4366 33.1962 37.1896 33.1036 36.8193 32.9185C36.4489 32.7333 34.6281 31.8373 34.2887 31.7137C33.9492 31.5902 33.7023 31.5286 33.4553 31.8994C33.2083 32.2696 32.4992 33.1036 32.283 33.3505C32.0671 33.5981 31.8509 33.6289 31.4807 33.4437C31.1101 33.2579 29.9174 32.8673 28.5024 31.6058C27.4015 30.6242 26.6582 29.4119 26.4422 29.0411C26.2261 28.6709 26.419 28.4702 26.6047 28.2857C26.7711 28.1197 26.9752 27.8532 27.1605 27.6371C27.3452 27.4208 27.4068 27.2665 27.5303 27.0195C27.6539 26.7723 27.5921 26.556 27.4996 26.3708C27.4068 26.1855 26.6872 24.354 26.3579 23.6218Z" fill="white"/>
<defs>
<linearGradient id="paint0_linear_671_1339" x1="1503.49" y1="3005.08" x2="1503.49" y2="15" gradientUnits="userSpaceOnUse">
<stop stop-color="#F9F9F9"/>
<stop offset="1" stop-color="white"/>
</linearGradient>
</defs>
</svg>
